<?xml version="1.0" encoding="utf-8"?>
<!-- Generator: Adobe Illustrator 27.7.0, SVG Export Plug-In . SVG Version: 6.00 Build 0)  -->
<svg version="1.1" id="Layer_1" xmlns="http://www.w3.org/2000/svg" xmlns:xlink="http://www.w3.org/1999/xlink" x="0px" y="0px"
	 viewBox="0 0 1440 80" style="enable-background:new 0 0 1440 80;" xml:space="preserve">
<style type="text/css">
	.st0{fill:#FFFFFF;}
</style>
<path class="st0" d="M1440,0v80H0V0c60,0,60,28,120,28c60,0,60-28,120-28c60,0,60,28,120,28c60,0,60-28,120-28c60,0,60,28,120,28
	c60,0,60-28,120-28c60,0,60,28,120,28c60,0,60-28,120-28c60,0,60,28,120,28c60,0,60-28,120-28c60,0,60,28,120,28
	C1380,28,1380,0,1440,0z"/>
</svg>
